# xmcd
#
# Track frame offsets:
#	150
#	27006
#	48238
#	71064
#	87149
#	107828
#	126727
#	153822
#	169119
#	188020
#	205944
#	221975
#	244770
#	265536
#
# Disc length: 4529 seconds
#
# Revision: 0
# Processed by: cddbd v1.5.2PL0 Copyright (c) Steve Scherf et al.
# Submitted via: EZCDAudioConverter 1.3.4.1
#
DISCID=c211af0e
DTITLE=Orchestre Poly-Rythmo De Cotonou - The Vodoun Effect
DYEAR=1900
DGENRE=
TTITLE0=Mi Homlan Dadalé
TTITLE1=Assibavi
TTITLE2=Sé Wé Non Nan
TTITLE3=Ako Ba Ho
TTITLE4=Mi Ni Non Kpo
TTITLE5=Se Tche We Djo Mon
TTITLE6=Dis Moi La Verité
TTITLE7=Nouèssénamè
TTITLE8=Iya Me Dji Ki Bi Ni
TTITLE9=Akoue Tche We Gni Medjome
TTITLE10=Nou De Ma Do Vo
TTITLE11=Koutoulié
TTITLE12=Kourougninda Wendé
TTITLE13=Mawa Mon Nou Mio
EXTD=
EXTT0=
EXTT1=
EXTT2=
EXTT3=
EXTT4=
EXTT5=
EXTT6=
EXTT7=
EXTT8=
EXTT9=
EXTT10=
EXTT11=
EXTT12=
EXTT13=
PLAYORDER=
